<svg width="105" height="101" viewBox="0 0 105 101" fill="none" xmlns="http://www.w3.org/2000/svg">
<path fill-rule="evenodd" clip-rule="evenodd" d="M104.967 52.3036C104.989 51.705 105 51.1037 105 50.5C105 22.6096 81.4949 0 52.5 0C24.9056 0 2.28356 20.4781 0.162498 46.4973L28.7321 59.9326C29.9844 57.3443 32.7122 55.5499 35.8758 55.5499C38.6386 55.5499 41.0692 56.9185 42.4747 58.9894L64.9286 41.1705C64.8116 40.6511 64.75 40.1117 64.75 39.5585C64.75 35.375 68.2757 31.9835 72.625 31.9835C76.9742 31.9835 80.5 35.375 80.5 39.5585C80.5 39.7813 80.49 40.0018 80.4704 40.2197L104.967 52.3036ZM43.3808 60.8236L65.678 43.1291C67.0046 45.5124 69.618 47.1335 72.625 47.1335C76.0012 47.1335 78.8812 45.0898 80.0008 42.2182L104.84 54.471C102.735 80.5053 80.1056 101 52.5 101C23.5051 101 0 78.3904 0 50.5C0 49.8798 0.0116244 49.2621 0.034675 48.6473L28.1117 61.8509C28.0387 62.2651 28.0008 62.6908 28.0008 63.1249C28.0008 67.3085 31.5265 70.6999 35.8758 70.6999C40.225 70.6999 43.7508 67.3085 43.7508 63.1249C43.7508 62.3226 43.6211 61.5493 43.3808 60.8236Z" fill="#2575E6"/>
</svg>
